{"title":"Sexual Chronicles of a French Family (2012) DVD RIP UNCUT VERSIO","uid":10573173,"size":3501304482,"categoryP":"video","categoryS":"movies","magnet":"?xt=urn:btih:b2673bdc29ecd6e214ef11a4da9a69d5e1dee137&amp;dn=Sexual+Chronicles+of+a+French+Family+%282012%29+DVD+RIP+UNCUT+VERSIO&amp;tr=udp%3A%2F%2Ftracker.openbittorrent.com%3A80&amp;tr=udp%3A%2F%2Fopen.demonii.com%3A1337&amp;tr=udp%3A%2F%2Ftracker.coppersurfer.tk%3A6969&amp;tr=udp%3A%2F%2Fexodus.desync.com%3A6969","seeders":4,"leechers":2,"uploader":"jmanwf","files":-1,"time":1405608387,"description":"Storyline\n\nThree generations of a French family open up about their sexual experiences and desires after young Romain is caught masturbating in his biology class.\n\n\n\nFormat : MPEG-4\nFormat profile : Base Media / Version 2\nCodec ID : mp42\nFile size : 3.22 GiB\nDuration : 1h 21mn\nOverall bit rate mode : Variable\nOverall bit rate : 5 644 Kbps\nEncoded date : UTC 2014-07-10 10:34:13\nTagged date : UTC 2014-07-10 17:15:00\nWriting application : HandBrake 0.9.9 2013052900\n\nVideo\nID : 1\nFormat : AVC\nFormat/Info : Advanced Video Codec\nFormat profile : &lt;a class=&quot;__cf_email__&quot; href=&quot;/cdn-cgi/l/email-protection&quot; data-cfemail=&quot;95ddfcf2fdd5d9a1bba4&quot;&gt;[email&amp;#160;protected]&lt;/a&gt;&lt;script cf-hash='f9e31' type=&quot;text/javascript&quot;&gt;\n/* &lt;![CDATA[ */!function(){try{var t=&quot;currentScript&quot;in document?document.currentScript:function(){for(var t=document.getElementsByTagName(&quot;script&quot;),e=t.length;e--;)if(t[e].getAttribute(&quot;cf-hash&quot;))return t[e]}();if(t&amp;&amp;t.previousSibling){var e,r,n,i,c=t.previousSibling,a=c.getAttribute(&quot;data-cfemail&quot;);if(a){for(e=&quot;&quot;,r=parseInt(a.substr(0,2),16),n=2;a.length-n;n+=2)i=parseInt(a.substr(n,2),16)^r,e+=String.fromCharCode(i);e=document.createTextNode(e),c.parentNode.replaceChild(e,c)}}}catch(u){}}();/* ]]&gt; */&lt;/script&gt;\nFormat settings, CABAC : Yes\nFormat settings, ReFrames : 16 frames\nCodec ID : avc1\nCodec ID/Info : Advanced Video Coding\nDuration : 1h 21mn\nBit rate : 5 444 Kbps\nWidth : 720 pixels\nHeight : 576 pixels\nDisplay aspect ratio : 16:9\nFrame rate mode : Constant\nFrame rate : 25.000 fps\nStandard : PAL\nColor space : YUV\nChroma subsampling : 4:2:0\nBit depth : 8 bits\nScan type : Progressive\nBits/(Pixel*Frame) : 0.525\nStream size : 3.10 GiB (96%)\nWriting library : x264 core 130 r2273 b3065e6\ncrf_max=0.0 / nal_hrd=none / ip_ratio=1.40 / aq=1:1.00\nEncoded date : UTC 2014-07-10 10:34:13\nTagged date : UTC 2014-07-10 17:15:00\nColor primaries : BT.601 PAL\nTransfer characteristics : BT.709\nMatrix coefficients : BT.601\n\nAudio #1\nID : 2\nFormat : AAC\nFormat/Info : Advanced Audio Codec\nFormat profile : LC\nCodec ID : 40\nDuration : 1h 21mn\nBit rate mode : Variable\nBit rate : 96.0 Kbps\nMaximum bit rate : 161 Kbps\nChannel(s) : 2 channels\nChannel positions : Front: L R\nSampling rate : 48.0 KHz\nCompression mode : Lossy\nStream size : 56.1 MiB (2%)\nLanguage : French\nEncoded date : UTC 2014-07-10 10:34:13\nTagged date : UTC 2014-07-10 17:14:59\n\n\n\n &lt;a href=&quot;\nhttp://postimg.org/image/jem5ve5vz/&quot; rel=&quot;nofollow&quot; target=&quot;_NEW&quot;&gt;\nhttp://postimg.org/image/jem5ve5vz/&lt;/a&gt;\n\n &lt;a href=&quot;\nhttp://postimg.org/image/f6rdmn4gf/&quot; rel=&quot;nofollow&quot; target=&quot;_NEW&quot;&gt;\nhttp://postimg.org/image/f6rdmn4gf/&lt;/a&gt;\n\n &lt;a href=&quot;\nhttp://postimg.org/image/o325qkv2n/&quot; rel=&quot;nofollow&quot; target=&quot;_NEW&quot;&gt;\nhttp://postimg.org/image/o325qkv2n/&lt;/a&gt;\n\n &lt;a href=&quot;\nhttp://postimg.org/image/9cn3qd3yn/&quot; rel=&quot;nofollow&quot; target=&quot;_NEW&quot;&gt;\nhttp://postimg.org/image/9cn3qd3yn/&lt;/a&gt;\n\n &lt;a href=&quot;\nhttp://postimg.org/image/o7bp4jdjj/&quot; rel=&quot;nofollow&quot; target=&quot;_NEW&quot;&gt;\nhttp://postimg.org/image/o7bp4jdjj/&lt;/a&gt;\n\n\n &lt;a href=&quot;\nhttp://www.imdb.com/title/tt1753584/&quot; rel=&quot;nofollow&quot; target=&quot;_NEW&quot;&gt;\nhttp://www.imdb.com/title/tt1753584/&lt;/a&gt;\n\n\n\n\nRuntime: 1 Hour 21 Minutes\n\n\n\n\nIncludes English Subtitles ","torrent":{"xt":"urn:btih:b2673bdc29ecd6e214ef11a4da9a69d5e1dee137","amp;dn":"Sexual+Chronicles+of+a+French+Family+%282012%29+DVD+RIP+UNCUT+VERSIO","amp;tr":["udp%3A%2F%2Ftracker.openbittorrent.com%3A80","udp%3A%2F%2Fopen.demonii.com%3A1337","udp%3A%2F%2Ftracker.coppersurfer.tk%3A6969","udp%3A%2F%2Fexodus.desync.com%3A6969"],"infoHash":"b2673bdc29ecd6e214ef11a4da9a69d5e1dee137","infoHashBuffer":{"type":"Buffer","data":[178,103,59,220,41,236,214,226,20,239,17,164,218,154,105,213,225,222,225,55]},"announce":[],"urlList":[]}}